<svg width="477" height="47" viewBox="0 0 477 47" fill="none" xmlns="http://www.w3.org/2000/svg">
<path d="M28.168 22.96C30.7707 23.5147 32.8613 24.816 34.44 26.864C36.0187 28.8693 36.808 31.1733 36.808 33.776C36.808 37.5307 35.4853 40.5173 32.84 42.736C30.2373 44.912 26.5893 46 21.896 46H0.968V1.072H21.192C25.7573 1.072 29.32 2.11733 31.88 4.208C34.4827 6.29866 35.784 9.136 35.784 12.72C35.784 15.3653 35.08 17.5627 33.672 19.312C32.3067 21.0613 30.472 22.2773 28.168 22.96ZM11.912 19.248H19.08C20.872 19.248 22.2373 18.864 23.176 18.096C24.1573 17.2853 24.648 16.112 24.648 14.576C24.648 13.04 24.1573 11.8667 23.176 11.056C22.2373 10.2453 20.872 9.84 19.08 9.84H11.912V19.248ZM19.976 37.168C21.8107 37.168 23.2187 36.7627 24.2 35.952C25.224 35.0987 25.736 33.8827 25.736 32.304C25.736 30.7253 25.2027 29.488 24.136 28.592C23.112 27.696 21.6827 27.248 19.848 27.248H11.912V37.168H19.976ZM57.2995 9.84V18.928H71.9555V27.376H57.2995V37.232H73.8755V46H46.3555V1.072H73.8755V9.84H57.2995ZM95.1245 1.072V46H84.1805V1.072H95.1245ZM146.448 46H135.504L117.199 18.288V46H106.255V1.072H117.199L135.504 28.912V1.072H146.448V46ZM187.405 15.28C186.594 13.7867 185.421 12.656 183.885 11.888C182.391 11.0773 180.621 10.672 178.573 10.672C175.031 10.672 172.194 11.8453 170.061 14.192C167.927 16.496 166.861 19.5893 166.861 23.472C166.861 27.6107 167.97 30.8533 170.189 33.2C172.45 35.504 175.543 36.656 179.469 36.656C182.157 36.656 184.418 35.9733 186.253 34.608C188.13 33.2427 189.495 31.28 190.349 28.72H176.461V20.656H200.269V30.832C199.458 33.5627 198.071 36.1013 196.109 38.448C194.189 40.7947 191.735 42.6933 188.749 44.144C185.762 45.5947 182.391 46.32 178.637 46.32C174.199 46.32 170.231 45.36 166.733 43.44C163.277 41.4773 160.567 38.768 158.605 35.312C156.685 31.856 155.725 27.9093 155.725 23.472C155.725 19.0347 156.685 15.088 158.605 11.632C160.567 8.13333 163.277 5.424 166.733 3.504C170.189 1.54133 174.135 0.559998 178.573 0.559998C183.949 0.559998 188.471 1.86133 192.141 4.464C195.853 7.06667 198.306 10.672 199.501 15.28H187.405ZM232.443 46L223.099 29.04H220.475V46H209.531V1.072H227.899C231.44 1.072 234.448 1.69066 236.923 2.928C239.44 4.16533 241.317 5.872 242.555 8.048C243.792 10.1813 244.411 12.5707 244.411 15.216C244.411 18.2027 243.557 20.8693 241.851 23.216C240.187 25.5627 237.712 27.2267 234.427 28.208L244.795 46H232.443ZM220.475 21.296H227.259C229.264 21.296 230.757 20.8053 231.739 19.824C232.763 18.8427 233.275 17.456 233.275 15.664C233.275 13.9573 232.763 12.6133 231.739 11.632C230.757 10.6507 229.264 10.16 227.259 10.16H220.475V21.296ZM282.448 38.064H265.68L262.992 46H251.536L267.792 1.072H280.464L296.721 46H285.136L282.448 38.064ZM279.632 29.616L274.064 13.168L268.56 29.616H279.632ZM343.78 1.072V46H332.836V27.504H315.812V46H304.868V1.072H315.812V18.672H332.836V1.072H343.78ZM365.633 1.072V27.952C365.633 30.64 366.294 32.7093 367.617 34.16C368.939 35.6107 370.881 36.336 373.441 36.336C376.001 36.336 377.963 35.6107 379.329 34.16C380.694 32.7093 381.377 30.64 381.377 27.952V1.072H392.321V27.888C392.321 31.8987 391.467 35.2907 389.761 38.064C388.054 40.8373 385.75 42.928 382.849 44.336C379.99 45.744 376.79 46.448 373.249 46.448C369.707 46.448 366.529 45.7653 363.713 44.4C360.939 42.992 358.742 40.9013 357.121 38.128C355.499 35.312 354.689 31.8987 354.689 27.888V1.072H365.633ZM413.957 1.072V27.952C413.957 30.64 414.619 32.7093 415.941 34.16C417.264 35.6107 419.205 36.336 421.765 36.336C424.325 36.336 426.288 35.6107 427.653 34.16C429.019 32.7093 429.701 30.64 429.701 27.952V1.072H440.645V27.888C440.645 31.8987 439.792 35.2907 438.085 38.064C436.379 40.8373 434.075 42.928 431.173 44.336C428.315 45.744 425.115 46.448 421.573 46.448C418.032 46.448 414.853 45.7653 412.037 44.4C409.264 42.992 407.067 40.9013 405.445 38.128C403.824 35.312 403.013 31.8987 403.013 27.888V1.072H413.957ZM462.475 37.552H476.811V46H451.531V1.072H462.475V37.552Z" fill="#090909"/>
</svg>
