<svg width="76" height="110" viewBox="0 0 76 110" fill="none" xmlns="http://www.w3.org/2000/svg">
<path d="M0 71V0.199996H3.6V71H0ZM14.4 71V0.199996H18V71H14.4ZM21.6 71V0.199996H28.8V71H21.6ZM10.8 81.44H18.72C21.76 81.44 24.04 82.04 25.56 83.24C27.16 84.44 27.96 86.12 27.96 88.28C27.96 89.64 27.6 90.88 26.88 92C26.08 93.12 25.04 93.92 23.76 94.4C25.36 94.96 26.64 95.88 27.6 97.16C28.56 98.52 29.04 99.96 29.04 101.48C29.04 103.88 28.16 105.8 26.4 107.24C24.72 108.6 22.12 109.28 18.6 109.28H10.8V81.44ZM18.24 92.96C22.64 92.96 24.84 91.48 24.84 88.52C24.84 87.24 24.32 86.2 23.28 85.4C22.32 84.52 20.8 84.08 18.72 84.08H13.8V92.96H18.24ZM19.2 106.52C23.52 106.52 25.68 104.76 25.68 101.24C25.68 97.48 23.24 95.6 18.36 95.6H13.8V106.52H19.2ZM39.6094 71V0.199996H46.8094V71H39.6094ZM57.6094 71V0.199996H61.2094V71H57.6094ZM64.8094 71V0.199996H75.6094V71H64.8094ZM50.7694 81.44H58.9294C62.1294 81.44 64.4494 82.16 65.8894 83.6C67.4094 84.96 68.1694 86.92 68.1694 89.48C68.1694 91.08 67.6494 92.6 66.6094 94.04C65.5694 95.48 64.2094 96.44 62.5294 96.92L69.0094 109.28H65.5294L59.2894 97.04H53.8894V109.28H50.7694V81.44ZM59.2894 94.28C61.2094 94.28 62.6494 93.84 63.6094 92.96C64.4894 92.16 64.9294 91 64.9294 89.48C64.9294 87.96 64.4894 86.72 63.6094 85.76C62.6494 84.88 61.2094 84.44 59.2894 84.44H53.8894V94.28H59.2894Z" fill="white"/>
</svg>
